<svg xmlns="http://www.w3.org/2000/svg" width="1370.134" height="792"><defs><linearGradient id="a" x1="1" y1=".01" x2="0" y2="1" gradientUnits="objectBoundingBox"><stop offset="0" stop-color="#a52eff"/><stop offset="1" stop-color="#3d58f3"/></linearGradient><linearGradient id="b" x1="1" y1=".01" x2="0" y2="1" gradientUnits="objectBoundingBox"><stop offset="0" stop-color="#fff" stop-opacity=".161"/><stop offset="1" stop-color="#fff" stop-opacity="0"/></linearGradient><linearGradient id="c" x1="1" y1=".01" x2="0" y2="1" gradientUnits="objectBoundingBox"><stop offset="0" stop-color="#fff" stop-opacity=".2"/><stop offset="1" stop-color="#fff" stop-opacity="0"/></linearGradient></defs><g data-name="Group 182"><path data-name="Path 152" d="M1436 788s138.5-112.93 310-121.387 208.5 80.593 376 87.558 159.5-115.417 308-125.371 188.5 92.533 286 85.568 90-47.759 90-47.759V-4H1436z" transform="translate(-1436 4)" fill="url(#a)"/><path data-name="Path 196" d="M-1436 44h316.021C-1102.053 249.709-834.214 278.539-986 346c-162 72-212 170-168 270 19.387 44.062 32.951 76.089 42.058 98.13-4.58.088-9.274.248-14.058.484C-1297.5 723.071-1436 836-1436 836z" transform="translate(1436 -44)" fill="url(#b)"/><path data-name="Path 197" d="M-466 432.543c98-120-200-10-234-116-25.527-79.584 5.034-151.278 48.3-210h232.179c51.83 55.043 162.617 101.094 297.518 92 27.563-1.858 45.6 3.178 56 13.757v83.669c-35 95.453-144.1 243.066-218 360.574-28.631 45.528-59.231 63.959-88.053 63.953C-466.046 720.477-541 524.381-466 432.543z" transform="translate(1436 -106.543)" fill="url(#c)"/><circle data-name="Ellipse 68" cx="13.5" cy="13.5" r="13.5" transform="translate(483 556)" fill="#fff" opacity=".2"/><circle data-name="Ellipse 69" cx="15.5" cy="15.5" r="15.5" transform="translate(322 45)" fill="#fff" opacity=".2"/><circle data-name="Ellipse 70" cx="8" cy="8" r="8" transform="translate(1147 45)" fill="#fff" opacity=".2"/><g data-name="Path 155" fill="none" opacity=".2"><path d="M68.199 379.267a12.261 12.261 0 015.513 20.566l-28.257 28.02a12.261 12.261 0 01-20.476-5.532l-10.225-38.138a12.261 12.261 0 0114.961-15.033z"/><path d="M69.196 390.026c-.192-.718-.873-2.45-3.031-3.017L27.68 376.887c-2.142-.563-3.584.592-4.104 1.115s-1.669 1.97-1.095 4.109l10.225 38.139c.574 2.139 2.292 2.817 3.004 3.01.712.192 2.539.471 4.111-1.088l28.259-28.017c1.584-1.571 1.308-3.41 1.115-4.129m7.728-2.072c1.074 4.005.159 8.543-3.21 11.883l-28.259 28.017c-6.685 6.628-18.038 3.561-20.476-5.532l-10.225-38.139c-2.439-9.094 5.857-17.428 14.962-15.034L68.2 379.271c4.588 1.207 7.65 4.678 8.724 8.683z" fill="#fff"/></g><path data-name="Path 195" d="M1256.499 603a23.348 23.348 0 01-16.617-6.883 23.345 23.345 0 01-6.883-16.617 23.347 23.347 0 016.883-16.618 23.348 23.348 0 0116.617-6.882 23.348 23.348 0 0116.617 6.883 23.347 23.347 0 016.883 16.617 23.345 23.345 0 01-6.883 16.617 23.348 23.348 0 01-16.617 6.883zm0-40.286a16.805 16.805 0 00-16.785 16.786 16.8 16.8 0 0016.785 16.786 16.8 16.8 0 0016.786-16.786 16.805 16.805 0 00-16.786-16.786z" fill="#fff" stroke="rgba(0,0,0,0)" opacity=".2"/></g></svg>